# xmcd
#
# Track frame offsets:
#	150
#	9487
#	22757
#	33062
#	47055
#	63920
#	76177
#	86060
#	97725
#	107255
#	117370
#	131030
#	142130
#	150642
#	163505
#	174272
#	185807
#	194852
#	205460
#	217747
#	230922
#	244605
#	256352
#	267930
#	281425
#	294252
#
# Disc length: 4074 seconds
#
# Revision: 2
# Processed by: cddbd v1.5PL3 Copyright (c) Steve Scherf et al.
# Submitted via: MusicManager 7.0.4.0 
#
DISCID=640fe81a
DTITLE=Various Artist - My Rifle, My Pony and Me - Movie and TV soundtracks
DYEAR=1993
DGENRE=Country
TTITLE0=Dean Martin and Ricky Nelson - My rifle, my pony and me
TTITLE1=James Stewart - The legend of Shenandoah
TTITLE2=Sons of the Pioneers - Montana
TTITLE3=Merle Kilgore - Nevada Smith
TTITLE4=Marty Robbins - Ballad of the Alamo
TTITLE5=Sons of the Pioneers - The Searchers
TTITLE6=Johnny Western - Ballad of Paladin
TTITLE7=Johnny Cash - The sons of Katie Elder
TTITLE8=Frankie Laine - Rawhide
TTITLE9=Fess Parker - Ballad of Davy Crockett
TTITLE10=Dean Martin - Rio Bravo
TTITLE11=Tab Hunter - I'm a runnaway
TTITLE12=Lorne Greene - Bonanza
TTITLE13=Johnny Horton - North to Alaska
TTITLE14=Sons of the Pioneers - Wagons West
TTITLE15=Tex Ritter - High Noon
TTITLE16=Johnny Cash - The rebel Johnny Yuma
TTITLE17=Frankie Laine - Gunfight at O.K. Corral
TTITLE18=Kirk Douglas - And the moon grew bighter and brighter
TTITLE19=Marty Robbins - The hanging tree
TTITLE20=Roy Rogers and The Sons of the Pioneers - Pecos Bill
TTITLE21=Roy Rogers - The Yellow Rose ofTexas
TTITLE22=Roy Rogers - Roll on Texas Moon
TTITLE23=Sons of the Pioneers - Song of the Wagonmaster
TTITLE24=Roy Rogers - Don't fence me in
TTITLE25=Dickson Hall - Cowboy
EXTD=(c) Bear Family Records Germany\\r\nupc 4000127156259\r\n
EXTT0=
EXTT1=
EXTT2=
EXTT3=
EXTT4=
EXTT5=
EXTT6=
EXTT7=
EXTT8=
EXTT9=
EXTT10=
EXTT11=
EXTT12=
EXTT13=
EXTT14=
EXTT15=
EXTT16=
EXTT17=
EXTT18=
EXTT19=
EXTT20=
EXTT21=
EXTT22=
EXTT23=
EXTT24=
EXTT25=
PLAYORDER=
